M48
; DRILL file {KiCad 8.0.4-8.0.4-0~ubuntu24.04.1} date 2024-08-22T20:04:24-0400
; FORMAT={-:-/ absolute / inch / decimal}
; #@! TF.CreationDate,2024-08-22T20:04:24-04:00
; #@! TF.GenerationSoftware,Kicad,Pcbnew,8.0.4-8.0.4-0~ubuntu24.04.1
; #@! TF.FileFunction,Plated,1,2,PTH
FMAT,2
INCH
; #@! TA.AperFunction,Plated,PTH,ComponentDrill
T1C0.0276
; #@! TA.AperFunction,Plated,PTH,ComponentDrill
T2C0.0300
; #@! TA.AperFunction,Plated,PTH,ComponentDrill
T3C0.0315
; #@! TA.AperFunction,Plated,PTH,ComponentDrill
T4C0.0354
; #@! TA.AperFunction,Plated,PTH,ComponentDrill
T5C0.0394
; #@! TA.AperFunction,Plated,PTH,ComponentDrill
T6C0.0433
; #@! TA.AperFunction,Plated,PTH,ComponentDrill
T7C0.0610
%
G90
G05
T1
X0.927Y-2.7167
X0.927Y-2.9923
X0.927Y-3.2679
X0.927Y-3.8216
X0.927Y-4.0947
X0.927Y-4.3644
X0.9286Y-3.5435
X0.977Y-2.6667
X0.977Y-2.9423
X0.977Y-3.2179
X0.977Y-3.7716
X0.977Y-4.0447
X0.977Y-4.3144
X0.9786Y-3.4935
X1.027Y-2.7167
X1.027Y-2.9923
X1.027Y-3.2679
X1.027Y-3.8216
X1.027Y-4.0947
X1.027Y-4.3644
X1.0286Y-3.5435
X2.4122Y-2.7167
X2.4122Y-2.9923
X2.4122Y-3.2679
X2.4122Y-3.8216
X2.4122Y-4.0947
X2.4122Y-4.3644
X2.4137Y-3.5435
X2.4622Y-2.7667
X2.4622Y-3.0423
X2.4622Y-3.3179
X2.4622Y-3.8716
X2.4622Y-4.1447
X2.4622Y-4.4144
X2.4637Y-3.5935
X2.5122Y-2.7167
X2.5122Y-2.9923
X2.5122Y-3.2679
X2.5122Y-3.8216
X2.5122Y-4.0947
X2.5122Y-4.3644
X2.5137Y-3.5435
X3.2734Y-2.7502
X3.3234Y-2.7002
X3.3734Y-2.7502
T2
X0.7049Y-2.7167
X0.7049Y-2.9923
X0.7049Y-3.2679
X0.7049Y-3.8216
X0.7049Y-4.0947
X0.7049Y-4.3644
X0.7065Y-3.5435
X0.8049Y-2.7167
X0.8049Y-2.9923
X0.8049Y-3.2679
X0.8049Y-3.8216
X0.8049Y-4.0947
X0.8049Y-4.3644
X0.8065Y-3.5435
X1.1487Y-2.7167
X1.1487Y-2.9923
X1.1487Y-3.2679
X1.1487Y-3.8216
X1.1487Y-4.0947
X1.1487Y-4.3644
X1.1503Y-3.5435
X1.2487Y-2.7167
X1.2487Y-2.9923
X1.2487Y-3.2679
X1.2487Y-3.8216
X1.2487Y-4.0947
X1.2487Y-4.3644
X1.2503Y-3.5435
X1.3992Y-3.0582
X1.3992Y-3.1582
X1.3992Y-3.2582
X1.3992Y-3.3582
X1.3992Y-3.4582
X1.3992Y-3.5582
X1.3992Y-3.6582
X1.3992Y-3.7582
X1.3992Y-3.8582
X1.3992Y-3.9582
X1.3992Y-4.0582
X1.3992Y-4.1582
X1.3992Y-4.2582
X1.3992Y-4.3582
X1.9992Y-3.0582
X1.9992Y-3.1582
X1.9992Y-3.2582
X1.9992Y-3.3582
X1.9992Y-3.4582
X1.9992Y-3.5582
X1.9992Y-3.6582
X1.9992Y-3.7582
X1.9992Y-3.8582
X1.9992Y-3.9582
X1.9992Y-4.0582
X1.9992Y-4.1582
X1.9992Y-4.2582
X1.9992Y-4.3582
X2.1904Y-2.7167
X2.1904Y-2.9923
X2.1904Y-3.2679
X2.1904Y-3.8216
X2.1904Y-4.0947
X2.1904Y-4.3644
X2.1919Y-3.5435
X2.2904Y-2.7167
X2.2904Y-2.9923
X2.2904Y-3.2679
X2.2904Y-3.8216
X2.2904Y-4.0947
X2.2904Y-4.3644
X2.2919Y-3.5435
X2.6341Y-2.7167
X2.6341Y-2.9923
X2.6341Y-3.2679
X2.6341Y-3.8216
X2.6341Y-4.0947
X2.6341Y-4.3644
X2.6356Y-3.5435
X2.7341Y-2.7167
X2.7341Y-2.9923
X2.7341Y-3.2679
X2.7341Y-3.8216
X2.7341Y-4.0947
X2.7341Y-4.3644
X2.7356Y-3.5435
X2.9618Y-2.537
X3.0618Y-2.537
X3.1433Y-3.1354
X3.1433Y-3.2354
X3.1433Y-4.2969
X3.1433Y-4.3969
X3.1874Y-2.0957
X3.1874Y-2.3957
X3.2874Y-2.5094
X3.3874Y-2.0957
X3.3874Y-2.3957
X3.3874Y-2.5094
X3.7189Y-2.0957
X3.7189Y-2.3957
X3.8189Y-2.5094
X3.9189Y-2.0957
X3.9189Y-2.3957
X3.9189Y-2.5094
X4.185Y-1.8728
X4.185Y-1.9728
X4.2496Y-3.0449
X4.2496Y-3.1449
X4.2496Y-4.2063
X4.2496Y-4.3063
X4.2504Y-2.0957
X4.2504Y-2.3957
X4.3504Y-2.5094
X4.374Y-1.8728
X4.374Y-1.9728
X4.4504Y-2.0957
X4.4504Y-2.3957
X4.4504Y-2.5094
T3
X1.537Y-1.6224
X1.537Y-1.7224
X1.537Y-1.8224
X1.537Y-1.9224
X1.537Y-2.0224
X1.537Y-2.1224
X1.537Y-2.2224
X1.537Y-2.3224
X1.537Y-2.4224
X1.537Y-2.5224
X1.537Y-2.6224
X1.537Y-2.7224
X1.537Y-2.8224
X1.537Y-2.9224
X1.837Y-1.6224
X1.837Y-1.7224
X1.837Y-1.8224
X1.837Y-1.9224
X1.837Y-2.0224
X1.837Y-2.1224
X1.837Y-2.2224
X1.837Y-2.3224
X1.837Y-2.4224
X1.837Y-2.5224
X1.837Y-2.6224
X1.837Y-2.7224
X1.837Y-2.8224
X1.837Y-2.9224
X1.9701Y-2.0193
X1.9701Y-2.1177
X1.9701Y-2.3106
X1.9701Y-2.409
X2.1276Y-2.1177
X2.1276Y-2.3106
X3.0254Y-3.7693
X3.1238Y-3.7693
X3.815Y-1.6504
X3.815Y-1.7488
X3.9685Y-1.5488
X3.9685Y-1.6276
X4.2717Y-3.7811
X4.3701Y-3.7811
T4
X4.185Y-1.6683
X4.185Y-1.7683
X4.374Y-1.6683
X4.374Y-1.7683
T5
X0.7252Y-2.5203
X0.8252Y-2.5203
X0.9252Y-2.5203
X1.1457Y-1.9754
X1.1457Y-2.0754
X1.3638Y-1.7098
X1.3638Y-1.8098
X1.3638Y-1.9098
X1.3638Y-2.0098
X1.3638Y-2.1098
X2.2583Y-1.6224
X2.3583Y-1.6224
X2.4583Y-1.6224
X2.548Y-2.098
X2.548Y-2.198
X2.548Y-2.298
X2.548Y-2.398
X2.5583Y-1.6224
X2.648Y-2.098
X2.648Y-2.198
X2.6583Y-1.6224
X2.9618Y-2.098
X2.9618Y-2.198
X3.0618Y-2.098
X3.0618Y-2.198
X3.0618Y-2.298
X3.0618Y-2.398
X3.4472Y-3.6457
X3.4472Y-3.7457
X3.4472Y-3.9701
X3.4472Y-4.0701
X3.5472Y-3.6457
X3.5472Y-3.7457
X3.5472Y-3.9701
X3.5472Y-4.0701
X3.6472Y-3.6457
X3.6472Y-3.7457
X3.6472Y-3.9701
X3.6472Y-4.0701
X3.7472Y-3.6457
X3.7472Y-3.7457
X3.7472Y-3.9701
X3.7472Y-4.0701
X3.8472Y-3.6457
X3.8472Y-3.7457
X3.8472Y-3.9701
X3.8472Y-4.0701
X3.9472Y-3.6457
X3.9472Y-3.7457
X3.9472Y-3.9701
X3.9472Y-4.0701
T6
X3.0254Y-3.0354
X3.0254Y-3.1354
X3.0254Y-3.2354
X3.0254Y-4.1969
X3.0254Y-4.2969
X3.0254Y-4.3969
X3.2795Y-3.8559
X3.4213Y-3.1236
X3.4252Y-3.4819
X3.4606Y-3.8559
X3.6024Y-3.1236
X3.6063Y-3.4819
X3.6339Y-1.5488
X3.6339Y-1.6488
X3.6339Y-1.7488
X3.6417Y-3.8559
X3.7835Y-3.1236
X3.7874Y-3.4819
X3.8228Y-3.8559
X3.9646Y-3.1236
X3.9685Y-3.4819
X4.3701Y-3.0449
X4.3701Y-3.1449
X4.3701Y-3.2449
X4.3701Y-4.2063
X4.3701Y-4.3063
X4.3701Y-4.4063
T7
X3.0254Y-2.789
X3.1024Y-3.9976
X3.2638Y-3.1354
X3.2638Y-4.2969
X3.9646Y-4.4071
X4.1299Y-3.1449
X4.1299Y-4.3063
X4.1535Y-1.5488
X4.3701Y-3.5016
X4.374Y-1.5488
M30
